# xmcd
#
# Track frame offsets: 
#        150
#        21197
#        37360
#        49020
#        66270
#        81547
#        96405
#        111445
#        127170
#        139692
#        151512
#        166567
#
# Disc length: 2422 seconds
#
# Revision: 0
# Processed by: cddbd v1.5.2PL0 Copyright (c) Steve Scherf et al.
# Submitted via: ExactAudioCopy v1.0b3
#
DISCID=a609740c
DTITLE=美空ひばり - この歌をひばりと共に COCA-70238
DYEAR=1900
DGENRE=JPop
TTITLE0=影を慕いて
TTITLE1=明治一代女
TTITLE2=人生の並木路
TTITLE3=野崎小唄 
TTITLE4=博多夜船
TTITLE5=男の純情
TTITLE6=小雨の丘
TTITLE7=船頭可愛や
TTITLE8=並木の雨
TTITLE9=花言葉の唄 
TTITLE10=湖畔の宿
TTITLE11=荒城の月
EXTD=
EXTT0=
EXTT1=
EXTT2=
EXTT3=
EXTT4=
EXTT5=
EXTT6=
EXTT7=
EXTT8=
EXTT9=
EXTT10=
EXTT11=
PLAYORDER=
